/* XPM */
static char * 10_xpm[] = {
"150 75 29 1",
" 	c None",
".	c #1A1A1A",
"+	c #71BAFF",
"@	c #FFBA71",
"#	c #191948",
"$	c #97DDFF",
"%	c #FFDD97",
"&	c #481919",
"*	c #4897DD",
"=	c #FFFFFF",
"-	c #FFFFDD",
";	c #974819",
">	c #191971",
",	c #BAFFFF",
"'	c #DD9748",
")	c #FFFFBA",
"!	c #9797DD",
"~	c #711919",
"{	c #DD9797",
"]	c #714897",
"^	c #DDFFFF",
"/	c #BA7119",
"(	c #1971BA",
"_	c #974871",
":	c #194897",
"<	c #711948",
"[	c #97DDBA",
"}	c #711971",
"|	c #BABABA",
"......................................................................................................................................................",
"......................................................................................................................................................",
"......................................................................................................................................................",
"......................................................................................................................................................",
"......................................................................................................................................................",
"......................................................................................................................................................",
"......................................................................................................................................................",
"......................................................................................................................................................",
"......................................................................................................................................................",
"......................................................................................................................................................",
"......................................................................................................................................................",
"......................................................................................................................................................",
"......................................................................................................................................................",
"......................................................................................................................................................",
"......................................................................................................................................................",
"......................................................................................................................................................",
"......................................................................................................................................................",
"......................................................................................................................................................",
"......................................................................................................................................................",
"......................................................................................................................................................",
"......................................................................................................................................................",
"......................................................................................................................................................",
"......................................................................................................................................................",
"......................................................................................................................................................",
"......................................................................................................................................................",
"......................................................................................................................................................",
"......................................................................................................................................................",
"......................................................................................................................................................",
"..............................................................................+@...............#$%&...................................................",
"............................................*=-;.....>,='.....................+@...............#$%&...................................................",
"............................................*=='.....*=='.....................+@......................................................................",
"............................................*)!)~...#${,'.....................+@......................................................................",
"............................................*)]^/...(-_,'...:^===/....(===%&..+@(==)~.#$@...+%&.+%&.:^==/.............................................",
"............................................*)<$@...+@>,'..(=/..(='..*)~.#$%&.+=@.#$%&#$@...+%&.+%&>,'.#[~............................................",
"............................................*)~(-;.:^/>,'.#$@....+)~>,/...(-;.+%&..(-;#$@...+%&.+%&>,'................................................",
"............................................*)~>,'.*%&>,'.>,/....(-;:^=====-;.+@...:^/#$@...+%&.+%&.*=-;..............................................",
"............................................*)~.+)},'.>,'.:^/....()~:^/.......+@...:^/#$@...+%&.+%&...+=)~............................................",
"............................................*)~.:^|)~.>,'.>,@....+%&>,'.......+%&..(-;.+@...+%&.+%&....:^/............................................",
"............................................*)~.#$=@..>,'..*=/..(=/..*-;..(%&.+=@.>,@..*-;.+=%&.+%&(@..(-;............................................",
"............................................*)~..*=/..>,'...(===-;....*===%&..+'*==%&..#$=='*%&.+%&.+===/.............................................",
"......................................................................................................................................................",
"......................................................................................................................................................",
"......................................................................................................................................................",
"......................................................................................................................................................",
"......................................................................................................................................................",
"......................................................................................................................................................",
"......................................................................................................................................................",
"......................................................................................................................................................",
"......................................................................................................................................................",
"......................................................................................................................................................",
"......................................................................................................................................................",
"......................................................................................................................................................",
"......................................................................................................................................................",
"......................................................................................................................................................",
"......................................................................................................................................................",
"......................................................................................................................................................",
"......................................................................................................................................................",
"......................................................................................................................................................",
"......................................................................................................................................................",
"......................................................................................................................................................",
"......................................................................................................................................................",
"......................................................................................................................................................",
"......................................................................................................................................................",
"......................................................................................................................................................",
"......................................................................................................................................................",
"......................................................................................................................................................",
"......................................................................................................................................................",
"......................................................................................................................................................",
"......................................................................................................................................................",
"......................................................................................................................................................",
"......................................................................................................................................................",
"......................................................................................................................................................",
"......................................................................................................................................................",
"......................................................................................................................................................",
"......................................................................................................................................................"};
