/* XPM */
static char * 9_xpm[] = {
"150 75 22 1",
" 	c None",
".	c #1A1A1A",
"+	c #71BAFF",
"@	c #FFBA71",
"#	c #FFDD97",
"$	c #481919",
"%	c #191948",
"&	c #97DDFF",
"*	c #4897DD",
"=	c #FFFFBA",
"-	c #711919",
";	c #191971",
">	c #BAFFFF",
",	c #DD9748",
"'	c #FFFFFF",
")	c #1971BA",
"!	c #194897",
"~	c #DDFFFF",
"{	c #BA7119",
"]	c #FFFFDD",
"^	c #974819",
"/	c #7197DD",
"......................................................................................................................................................",
"......................................................................................................................................................",
"......................................................................................................................................................",
"......................................................................................................................................................",
"......................................................................................................................................................",
"......................................................................................................................................................",
"......................................................................................................................................................",
"......................................................................................................................................................",
"......................................................................................................................................................",
"......................................................................................................................................................",
"......................................................................................................................................................",
"......................................................................................................................................................",
"......................................................................................................................................................",
"......................................................................................................................................................",
"......................................................................................................................................................",
"......................................................................................................................................................",
"......................................................................................................................................................",
"......................................................................................................................................................",
"......................................................................................................................................................",
"......................................................................................................................................................",
"......................................................................................................................................................",
"......................................................................................................................................................",
"......................................................................................................................................................",
"......................................................................................................................................................",
"......................................................................................................................................................",
"......................................................................................................................................................",
"......................................................................................................................................................",
".........................................................................+@.................+#$..........%&#$......+#$................................",
"..............................*=-...;>,..................................+@.................+#$..........%&#$......+#$................................",
"..............................*=-...;>,..................................+@.................+#$....................+#$................................",
"..............................*=-...;>,..................................+@.................+#$....................+#$................................",
"..............................*=-...;>,.+=-...+#$+,*''=-...)'''#$..+@+'#$+@)''=-...!~'''{...+#$..!~'''{...+#$..+''@+#$..)'''#$........................",
"..............................*=-...;>,.!~{..!~{.+'@.%&#$.*=-.%&#$.+'@...+'@.%&#$.)'{..)',..+#$.)'{..)',..+#$.+=-.*'#$.*=-.%&#$.......................",
"..............................*''''''',.%&@..*=-.+#$..)]^;>{...)]^.+=-...+#$..)]^%&@....+=-.+#$%&@....+=-.+#$;>,...+#$;>{...)]^.......................",
"..............................*=-...;>,..*=-%&@..+@...!~{!~''''']^.+@....+@...!~{;>{....)]^.+#$;>{....)]^.+#$!~{...+#$!~''''']^.......................",
"..............................*=-...;>,..;>,!~{..+@...!~{!~{.......+@....+@...!~{!~{....)=-.+#$!~{....)=-.+#$!~{...+#$!~{.............................",
"..............................*=-...;>,...+#/#$..+#$..)]^;>,.......+@....+#$..)]^;>@....+#$.+#$;>@....+#$.+#$;>,...+#$;>,.............................",
"..............................*=-...;>,...)'',...+'@.;>@..*]^..)#$.+@....+'@.;>@..*'{..)'{..+#$.*'{..)'{..+#$.+=-.+'#$.*]^..)#$.......................",
"..............................*=-...;>,...%&]^...+@*''#$...*'''#$..+@....+,*''#$...)''']^...+#$..)''']^...+#$.%&'',*#$..*'''#$........................",
"..........................................%&#$...+@...................................................................................................",
"..........................................!~{....+@...................................................................................................",
"..........................................+=-....+@...................................................................................................",
"......................................................................................................................................................",
"......................................................................................................................................................",
"......................................................................................................................................................",
"......................................................................................................................................................",
"......................................................................................................................................................",
"......................................................................................................................................................",
"......................................................................................................................................................",
"......................................................................................................................................................",
"......................................................................................................................................................",
"......................................................................................................................................................",
"......................................................................................................................................................",
"......................................................................................................................................................",
"......................................................................................................................................................",
"......................................................................................................................................................",
"......................................................................................................................................................",
"......................................................................................................................................................",
"......................................................................................................................................................",
"......................................................................................................................................................",
"......................................................................................................................................................",
"......................................................................................................................................................",
"......................................................................................................................................................",
"......................................................................................................................................................",
"......................................................................................................................................................",
"......................................................................................................................................................",
"......................................................................................................................................................",
"......................................................................................................................................................",
"......................................................................................................................................................",
"......................................................................................................................................................",
"......................................................................................................................................................",
"......................................................................................................................................................",
"......................................................................................................................................................",
"......................................................................................................................................................",
"......................................................................................................................................................"};
