/* XPM */
static char * check_ok_xpm[] = {
"23 22 16 1",
" 	c #120E10",
".	c #120E11",
"+	c #000000",
"@	c #00FF00",
"#	c #110E11",
"$	c #110E10",
"%	c #130E11",
"&	c #130F11",
"*	c #120F11",
"=	c #140F11",
"-	c #141012",
";	c #141011",
">	c #120F12",
",	c #110F11",
"'	c #131011",
")	c #100E10",
"         ..............",
"         ..............",
"       ++++++++++......",
".   ++++@@@@@@@@+++....",
"#$$+++@@@@@@@@@@@@+++%%",
"##$+++@@@@@@@@@@@@+++%.",
"..#+@@@@@@@@@@@@@@@++&.",
"..++@@@++++@@++++@@+++*",
"&&+@@@@@@++@@@@@+@@@@+*",
"==+@@@@@@@@@@@@@@@@@@+*",
"--+@@@@@@@@@@@@@@@@@@+*",
"-;+@@@@@@@@@@+@@@@@@@+>",
"--+@@@@@@@@@++@@@@@@@+*",
"--+@@@@@@@@@@@@@@@@@@+*",
"-;+@@@@@+@@@@@@@@@@@@+,",
"-'+@@@@@+@@@@@@@@@@@@+#",
"''+@@@@@@+++++++@@@+++#",
"*&++@@@@@@@@@@@@@@@++##",
".&&+++@@@@@@@@@@@@+++#)",
"*   ++++@@@@@@@@@++))))",
"*   ++++@@@@@@@@@++))))",
"*..####+++++++++++)))))"};
