/* XPM */
static char * fleche_xpm[] = {
"50 50 2 1",
" 	c None",
".	c #292929",
"                    ..............................",
"                   ...............................",
"                  ................................",
"                 .................................",
"                ..................................",
"               ...................................",
"              ....................................",
"             .....................................",
"            ......................................",
"           .......................................",
"          ........................................",
"         .........................................",
"        ..........................................",
"       ...........................................",
"      ............................................",
"     .............................................",
"    ..............................................",
"   ...............................................",
"  ................................................",
" .................................................",
"..................................................",
"..................................................",
"..................................................",
"..................................................",
"..................................................",
"..................................................",
" .................................................",
"   ...............................................",
"    ..............................................",
"     .............................................",
"      ............................................",
"       ...........................................",
"        ..........................................",
"         .........................................",
"          ........................................",
"           .......................................",
"            ......................................",
"              ....................................",
"               ...................................",
"                 .................................",
"                   ...............................",
"                    ..............................",
"                     .............................",
"                      ............................",
"                       ...........................",
"                        ..........................",
"                         .........................",
"                          ........................",
"                          ........................",
"                           ......................."};
