/* XPM */
static char * selection_10_xpm[] = {
"150 75 29 1",
" 	c None",
".	c #7F7F7F",
"+	c #ABD6FF",
"@	c #FFD6AB",
"#	c #7F7F95",
"$	c #C1EBFF",
"%	c #FFEBC1",
"&	c #957F7F",
"*	c #95C1EB",
"=	c #FFFFFF",
"-	c #FFFFEB",
";	c #C1957F",
">	c #7F7FAB",
",	c #D6FFFF",
"'	c #EBC195",
")	c #FFFFD6",
"!	c #C1C1EB",
"~	c #AB7F7F",
"{	c #EBC1C1",
"]	c #AB95C1",
"^	c #EBFFFF",
"/	c #D6AB7F",
"(	c #7FABD6",
"_	c #C195AB",
":	c #7F95C1",
"<	c #AB7F95",
"[	c #C1EBD6",
"}	c #AB7FAB",
"|	c #D6D6D6",
"......................................................................................................................................................",
"......................................................................................................................................................",
"......................................................................................................................................................",
"......................................................................................................................................................",
"......................................................................................................................................................",
"......................................................................................................................................................",
"......................................................................................................................................................",
"......................................................................................................................................................",
"......................................................................................................................................................",
"......................................................................................................................................................",
"......................................................................................................................................................",
"......................................................................................................................................................",
"......................................................................................................................................................",
"......................................................................................................................................................",
"......................................................................................................................................................",
"......................................................................................................................................................",
"......................................................................................................................................................",
"......................................................................................................................................................",
"......................................................................................................................................................",
"......................................................................................................................................................",
"......................................................................................................................................................",
"......................................................................................................................................................",
"......................................................................................................................................................",
"......................................................................................................................................................",
"......................................................................................................................................................",
"......................................................................................................................................................",
"......................................................................................................................................................",
"......................................................................................................................................................",
"...................................................................................+@......#$%&.......................................................",
".................................................*=-;.....>,='.....................+@......#$%&.......................................................",
".................................................*=='.....*=='.....................+@.................................................................",
".................................................*)!)~...#${,'.....................+@.................................................................",
".................................................*)]^/...(-_,'...:^===/....(===%&..+@(==)~..+%&#$@...+%&.:^==/........................................",
".................................................*)<$@...+@>,'..(=/..(='..*)~.#$%&.+=@.#$%&.+%&#$@...+%&>,'.#[~.......................................",
".................................................*)~(-;.:^/>,'.#$@....+)~>,/...(-;.+%&..(-;.+%&#$@...+%&>,'...........................................",
".................................................*)~>,'.*%&>,'.>,/....(-;:^=====-;.+@...:^/.+%&#$@...+%&.*=-;.........................................",
".................................................*)~.+)},'.>,'.:^/....()~:^/.......+@...:^/.+%&#$@...+%&...+=)~.......................................",
".................................................*)~.:^|)~.>,'.>,@....+%&>,'.......+%&..(-;.+%&.+@...+%&....:^/.......................................",
".................................................*)~.#$=@..>,'..*=/..(=/..*-;..(%&.+=@.>,@..+%&.*-;.+=%&(@..(-;.......................................",
".................................................*)~..*=/..>,'...(===-;....*===%&..+'*==%&..+%&.#$=='*%&.+===/........................................",
"......................................................................................................................................................",
"......................................................................................................................................................",
"......................................................................................................................................................",
"......................................................................................................................................................",
"......................................................................................................................................................",
"......................................................................................................................................................",
"......................................................................................................................................................",
"......................................................................................................................................................",
"......................................................................................................................................................",
"......................................................................................................................................................",
"......................................................................................................................................................",
"......................................................................................................................................................",
"......................................................................................................................................................",
"......................................................................................................................................................",
"......................................................................................................................................................",
"......................................................................................................................................................",
"......................................................................................................................................................",
"......................................................................................................................................................",
"......................................................................................................................................................",
"......................................................................................................................................................",
"......................................................................................................................................................",
"......................................................................................................................................................",
"......................................................................................................................................................",
"......................................................................................................................................................",
"......................................................................................................................................................",
"......................................................................................................................................................",
"......................................................................................................................................................",
"......................................................................................................................................................",
"......................................................................................................................................................",
"......................................................................................................................................................",
"......................................................................................................................................................",
"......................................................................................................................................................",
"......................................................................................................................................................",
"......................................................................................................................................................",
"......................................................................................................................................................"};
