/* XPM */
static char * selection_9_xpm[] = {
"150 75 22 1",
" 	c None",
".	c #7F7F7F",
"+	c #ABD6FF",
"@	c #FFD6AB",
"#	c #FFEBC1",
"$	c #957F7F",
"%	c #7F7F95",
"&	c #C1EBFF",
"*	c #95C1EB",
"=	c #FFFFD6",
"-	c #AB7F7F",
";	c #7F7FAB",
">	c #D6FFFF",
",	c #EBC195",
"'	c #FFFFFF",
")	c #7FABD6",
"!	c #7F95C1",
"~	c #EBFFFF",
"{	c #D6AB7F",
"]	c #FFFFEB",
"^	c #C1957F",
"/	c #ABC1EB",
"......................................................................................................................................................",
"......................................................................................................................................................",
"......................................................................................................................................................",
"......................................................................................................................................................",
"......................................................................................................................................................",
"......................................................................................................................................................",
"......................................................................................................................................................",
"......................................................................................................................................................",
"......................................................................................................................................................",
"......................................................................................................................................................",
"......................................................................................................................................................",
"......................................................................................................................................................",
"......................................................................................................................................................",
"......................................................................................................................................................",
"......................................................................................................................................................",
"......................................................................................................................................................",
"......................................................................................................................................................",
"......................................................................................................................................................",
"......................................................................................................................................................",
"......................................................................................................................................................",
"......................................................................................................................................................",
"......................................................................................................................................................",
"......................................................................................................................................................",
"......................................................................................................................................................",
"......................................................................................................................................................",
"......................................................................................................................................................",
"......................................................................................................................................................",
"......................................................................................................................................................",
"........................................................................+@.................+#$..........%&#$......+#$.................................",
".............................*=-...;>,..................................+@.................+#$..........%&#$......+#$.................................",
".............................*=-...;>,..................................+@.................+#$....................+#$.................................",
".............................*=-...;>,..................................+@.................+#$....................+#$.................................",
".............................*=-...;>,.+=-...+#$+,*''=-...)'''#$..+@+'#$+@)''=-...!~'''{...+#$..!~'''{...+#$..+''@+#$..)'''#$.........................",
".............................*=-...;>,.!~{..!~{.+'@.%&#$.*=-.%&#$.+'@...+'@.%&#$.)'{..)',..+#$.)'{..)',..+#$.+=-.*'#$.*=-.%&#$........................",
".............................*''''''',.%&@..*=-.+#$..)]^;>{...)]^.+=-...+#$..)]^%&@....+=-.+#$%&@....+=-.+#$;>,...+#$;>{...)]^........................",
".............................*=-...;>,..*=-%&@..+@...!~{!~''''']^.+@....+@...!~{;>{....)]^.+#$;>{....)]^.+#$!~{...+#$!~''''']^........................",
".............................*=-...;>,..;>,!~{..+@...!~{!~{.......+@....+@...!~{!~{....)=-.+#$!~{....)=-.+#$!~{...+#$!~{..............................",
".............................*=-...;>,...+#/#$..+#$..)]^;>,.......+@....+#$..)]^;>@....+#$.+#$;>@....+#$.+#$;>,...+#$;>,..............................",
".............................*=-...;>,...)'',...+'@.;>@..*]^..)#$.+@....+'@.;>@..*'{..)'{..+#$.*'{..)'{..+#$.+=-.+'#$.*]^..)#$........................",
".............................*=-...;>,...%&]^...+@*''#$...*'''#$..+@....+,*''#$...)''']^...+#$..)''']^...+#$.%&'',*#$..*'''#$.........................",
".........................................%&#$...+@....................................................................................................",
".........................................!~{....+@....................................................................................................",
".........................................+=-....+@....................................................................................................",
"......................................................................................................................................................",
"......................................................................................................................................................",
"......................................................................................................................................................",
"......................................................................................................................................................",
"......................................................................................................................................................",
"......................................................................................................................................................",
"......................................................................................................................................................",
"......................................................................................................................................................",
"......................................................................................................................................................",
"......................................................................................................................................................",
"......................................................................................................................................................",
"......................................................................................................................................................",
"......................................................................................................................................................",
"......................................................................................................................................................",
"......................................................................................................................................................",
"......................................................................................................................................................",
"......................................................................................................................................................",
"......................................................................................................................................................",
"......................................................................................................................................................",
"......................................................................................................................................................",
"......................................................................................................................................................",
"......................................................................................................................................................",
"......................................................................................................................................................",
"......................................................................................................................................................",
"......................................................................................................................................................",
"......................................................................................................................................................",
"......................................................................................................................................................",
"......................................................................................................................................................",
"......................................................................................................................................................",
"......................................................................................................................................................",
"......................................................................................................................................................",
"......................................................................................................................................................"};
