/* XPM */
static char * write_xpm[] = {
"20 20 236 2",
"  	c #100E19",
". 	c #3B3B41",
"+ 	c #3D3C43",
"@ 	c #3C3C44",
"# 	c #3D3C42",
"$ 	c #3E3D43",
"% 	c #3F3E43",
"& 	c #3F3E44",
"* 	c #454146",
"= 	c #9C4E51",
"- 	c #9B4649",
"; 	c #9A4447",
"> 	c #9A4347",
", 	c #994246",
"' 	c #974347",
") 	c #984346",
"! 	c #A14749",
"~ 	c #DAD0C8",
"{ 	c #292730",
"] 	c #BCCCDA",
"^ 	c #BFCDDA",
"/ 	c #BFCDD9",
"( 	c #C0CDD9",
"_ 	c #C0CDDA",
": 	c #C1CDDA",
"< 	c #C2CDDA",
"[ 	c #C3CEDA",
"} 	c #DFD5DE",
"| 	c #E1D3DB",
"1 	c #E1D4DB",
"2 	c #E2D4DA",
"3 	c #E5D4DA",
"4 	c #E6D4DB",
"5 	c #E8D8DE",
"6 	c #925958",
"7 	c #2A2830",
"8 	c #BFCCDA",
"9 	c #7494B8",
"0 	c #7894B8",
"a 	c #7A95B9",
"b 	c #7B95B9",
"c 	c #7C96B9",
"d 	c #899ABB",
"e 	c #8A98BA",
"f 	c #8A98B9",
"g 	c #8A97B8",
"h 	c #989EBE",
"i 	c #E4D3DA",
"j 	c #E6D3DA",
"k 	c #E7DBE1",
"l 	c #8E5554",
"m 	c #2A2932",
"n 	c #7B99BB",
"o 	c #215596",
"p 	c #235797",
"q 	c #255898",
"r 	c #245797",
"s 	c #3A6198",
"t 	c #E7D4DA",
"u 	c #E8DAE0",
"v 	c #888681",
"w 	c #235694",
"x 	c #205596",
"y 	c #1F5495",
"z 	c #1D5293",
"A 	c #395F94",
"B 	c #E6D4DA",
"C 	c #E7D8DE",
"D 	c #888882",
"E 	c #2B2A32",
"F 	c #C3CDDA",
"G 	c #BCC8D6",
"H 	c #416DA2",
"I 	c #1F5395",
"J 	c #1E5394",
"K 	c #1D5294",
"L 	c #1D5193",
"M 	c #1C4E90",
"N 	c #385D92",
"O 	c #E6D7DA",
"P 	c #EADADD",
"Q 	c #868580",
"R 	c #C3D0DA",
"S 	c #4D77A9",
"T 	c #275998",
"U 	c #395C92",
"V 	c #E9D7DA",
"W 	c #E9D9DC",
"X 	c #85837D",
"Y 	c #282730",
"Z 	c #C1CCD9",
"` 	c #C5D0DA",
" .	c #7F99BB",
"..	c #295B9A",
"+.	c #1C5092",
"@.	c #1C4E8F",
"#.	c #EAD7DA",
"$.	c #EBD9DB",
"%.	c #84807A",
"&.	c #2A2831",
"*.	c #C1CDD9",
"=.	c #C2D0DA",
"-.	c #A9BACE",
";.	c #30609A",
">.	c #1C5091",
",.	c #1C4F91",
"'.	c #1B4E8F",
").	c #E8D7DA",
"!.	c #EAD8DA",
"~.	c #837C77",
"{.	c #C6D1DA",
"].	c #2B5D9B",
"^.	c #275A99",
"/.	c #1A4A8A",
"(.	c #6D81AB",
"_.	c #1B4C8C",
":.	c #1A4B8C",
"<.	c #EAD9DA",
"[.	c #827772",
"}.	c #285B99",
"|.	c #1A4B8B",
"1.	c #8199B8",
"2.	c #E7D7DD",
"3.	c #25508E",
"4.	c #1A4B8A",
"5.	c #385C92",
"6.	c #EAD9DB",
"7.	c #EBDADB",
"8.	c #ECDADB",
"9.	c #837470",
"0.	c #C5D0D9",
"a.	c #C7D2DA",
"b.	c #B3C0D0",
"c.	c #245897",
"d.	c #1C5192",
"e.	c #1C4F90",
"f.	c #1A4A89",
"g.	c #6985AB",
"h.	c #D0D7DB",
"i.	c #EADBDE",
"j.	c #EAD9DD",
"k.	c #9EA2BE",
"l.	c #385B91",
"m.	c #EBDADC",
"n.	c #ECDADC",
"o.	c #85716E",
"p.	c #292830",
"q.	c #C6D1D9",
"r.	c #AEBBCF",
"s.	c #225696",
"t.	c #205495",
"u.	c #1B4D8E",
"v.	c #456798",
"w.	c #CED3DA",
"x.	c #D1D7DA",
"y.	c #EADDE0",
"z.	c #ECDCDE",
"A.	c #ECDBDD",
"B.	c #EDDCDD",
"C.	c #EDDBDD",
"D.	c #856E6C",
"E.	c #CAD2DA",
"F.	c #CED6DA",
"G.	c #D1D6DA",
"H.	c #D2D7DA",
"I.	c #EBDFE2",
"J.	c #EDDEE0",
"K.	c #EDDDDF",
"L.	c #EEDDDE",
"M.	c #EEDDDF",
"N.	c #F1DDE2",
"O.	c #F2DDE1",
"P.	c #876C6B",
"Q.	c #2B2A34",
"R.	c #C8D2DA",
"S.	c #1E5294",
"T.	c #1B4D8D",
"U.	c #1B4B8A",
"V.	c #D3D7DA",
"W.	c #E9E0E3",
"X.	c #EEDFE1",
"Y.	c #EFDFE0",
"Z.	c #EFDEE0",
"`.	c #F3DEE3",
" +	c #896A6A",
".+	c #292833",
"++	c #CBD2DA",
"@+	c #CCD2DA",
"#+	c #CDD2DA",
"$+	c #869DBB",
"%+	c #1C4D8E",
"&+	c #29568F",
"*+	c #D2D6DA",
"=+	c #D3D8DA",
"-+	c #E7E0E2",
";+	c #F0E0E1",
">+	c #EFDFE1",
",+	c #F2DFE4",
"'+	c #F3DFE4",
")+	c #F4DFE4",
"!+	c #896667",
"~+	c #2A2934",
"{+	c #CDD3DA",
"]+	c #869BB9",
"^+	c #E4DEE0",
"/+	c #EEDEE0",
"(+	c #F2DEE3",
"_+	c #865E60",
":+	c #292933",
"<+	c #C6CDD6",
"[+	c #718DB4",
"}+	c #6583AB",
"|+	c #D4D8DA",
"1+	c #D5D9DA",
"2+	c #DFDADF",
"3+	c #DFD9DE",
"4+	c #E0D9DE",
"5+	c #E0DADE",
"6+	c #E1DCDE",
"7+	c #3A2B2D",
"8+	c #282832",
"9+	c #CCD3DB",
"0+	c #D8D8DD",
"a+	c #D9D9DD",
"b+	c #D9DCDD",
"c+	c #D9DBDD",
"d+	c #1A171B",
"e+	c #0F0E1C",
"f+	c #0D0D17",
"g+	c #0F0D17",
"h+	c #0F0D16",
"i+	c #0F0E16",
"j+	c #100F17",
"k+	c #100F16",
"l+	c #130E16",
"m+	c #151017",
"  . + @ # $ $ % % & * = - ; > , ' ) ! ~ ",
"{ ] ] ^ / ( _ : : < [ } | 1 2 1 3 4 5 6 ",
"7 ] 8 ^ _ 9 0 a b c c d e f g h i j k l ",
"m ^ ^ _ _ : n o p q q q q r o s j t u v ",
"m _ _ _ : : < w x o x x x y z A B t C D ",
"E : _ : : F F G H I J K K L M N B O P Q ",
"E : : : < F R S T y K K K L M U B V W X ",
"Y Z : < < `  ...r J K L L +.@.U V #.$.%.",
"&.*.: < =.-.;.q x K L >.,.,.'.U ).!.!.~.",
"m < < ` {.].^.y K >.'./.(._.:.U !.<.<.[.",
"m < =.{.{.}.q J L '.|.1.2.3.4.5.6.7.8.9.",
"&.0.{.a.b.c.o d.e.f.g.h.i.j.k.l.m.n.8.o.",
"p.q.{.a.r.s.t.>.u.v.w.x.y.z.A.U B.B.C.D.",
"m a.a.a.E.t.J u.|.F.G.H.I.J.K.L.M.N.O.P.",
"Q.R.a.E.E.S.L T.U.G.G.V.W.X.Y.Z.Z.`.`. +",
".+a.++@+#+$+%+|.&+*+V.=+-+;+>+,+'+)+)+!+",
"~+E.++#+{+w.]+/.|.V.V.=+^+X./+(+(+`.`._+",
":+++#+w.w.F.G.*+<+[+}+|+1+2+3+4+4+5+6+7+",
"8+9+{+w.w.G.G.V.V.=+|+|+|+0+0+a+a+b+c+d+",
"e+f+g+h+h+h+h+h+h+h+h+h+h+i+i+j+j+k+l+m+"};
