/* XPM */
static char * C:\Users\remi\Dropbox\texture_generateur\wrong_xpm[] = {
"26 26 2 1",
" 	c #E04343",
".	c #FFFFFF",
"                          ",
"                          ",
"                          ",
"                          ",
"                          ",
"                          ",
"                          ",
"                          ",
"        ...     ...       ",
"         ...   ...        ",
"          ... ...         ",
"           .....          ",
"            ...           ",
"           .....          ",
"          ... ...         ",
"         ...   ...        ",
"        ...     ...       ",
"                          ",
"                          ",
"                          ",
"                          ",
"                          ",
"                          ",
"                          ",
"                          ",
"                          "};
