/* XPM */
static char * C:\Users\remi\Dropbox\texture_generateur\cercle_xpm[] = {
"100 100 2 1",
" 	c None",
".	c #000000",
"                                                                                                    ",
"                                                                                                    ",
"                                                                                                    ",
"                                                                                                    ",
"                                                                                                    ",
"                                                                                                    ",
"                                                                                                    ",
"                                                                                                    ",
"                                                                                                    ",
"                                                                                                    ",
"                                                                                                    ",
"                                                                                                    ",
"                                                                                                    ",
"                                              ...........                                           ",
"                                         .....................                                      ",
"                                      ...........................                                   ",
"                                   .................................                                ",
"                                  ...................................                               ",
"                                ..............           ..............                             ",
"                              ............                   ............                           ",
"                             ..........                         ..........                          ",
"                            .........                             ..........                        ",
"                          .........                                 .........                       ",
"                         ........                                     ........                      ",
"                        ........                                       ........                     ",
"                       ........                                          .......                    ",
"                      .......                                             .......                   ",
"                     .......                                               .......                  ",
"                     ......                                                 .......                 ",
"                    ......                                                   ......                 ",
"                   ......                                                     ......                ",
"                  .......                                                     .......               ",
"                  ......                                                       ......               ",
"                 ......                                                         ......              ",
"                 .....                                                           .....              ",
"                ......                                                           ......             ",
"                .....                                                             .....             ",
"               ......                                                             ......            ",
"               .....                                                               .....            ",
"               .....                                                               ......           ",
"              .....                                                                 .....           ",
"              .....                                                                 .....           ",
"              .....                                                                 .....           ",
"             ......                                                                  .....          ",
"             .....                                                                   .....          ",
"             .....                                                                   .....          ",
"             .....                                                                   .....          ",
"            .....                                                                     .....         ",
"            .....                                                                     .....         ",
"            .....                                                                     .....         ",
"            .....                                                                     .....         ",
"            .....                                                                     .....         ",
"            .....                                                                     .....         ",
"            .....                                                                     .....         ",
"            .....                                                                     .....         ",
"            .....                                                                     .....         ",
"            .....                                                                     .....         ",
"            .....                                                                     .....         ",
"            .....                                                                     .....         ",
"             .....                                                                   .....          ",
"             .....                                                                   .....          ",
"             .....                                                                   .....          ",
"             ......                                                                  .....          ",
"              .....                                                                 ......          ",
"              .....                                                                 .....           ",
"              .....                                                                 .....           ",
"              ......                                                               ......           ",
"               .....                                                               .....            ",
"               ......                                                             ......            ",
"                .....                                                             .....             ",
"                ......                                                           ......             ",
"                 .....                                                           .....              ",
"                 ......                                                         ......              ",
"                  ......                                                       ......               ",
"                  ......                                                       ......               ",
"                   ......                                                     ......                ",
"                    ......                                                   ......                 ",
"                    .......                                                 .......                 ",
"                     .......                                               .......                  ",
"                      .......                                             .......                   ",
"                       .......                                           .......                    ",
"                        ........                                        .......                     ",
"                         ........                                     ........                      ",
"                          .........                                 .........                       ",
"                           ..........                             ..........                        ",
"                             ..........                         ..........                          ",
"                              ............                   ............                           ",
"                                ..............           ..............                             ",
"                                  ....................................                              ",
"                                   .................................                                ",
"                                      ...........................                                   ",
"                                         .....................                                      ",
"                                             .............                                          ",
"                                                                                                    ",
"                                                                                                    ",
"                                                                                                    ",
"                                                                                                    ",
"                                                                                                    ",
"                                                                                                    ",
"                                                                                                    "};
