/* XPM */
static char * C:\Users\remi\Dropbox\texture_generateur\triangle_xpm[] = {
"100 100 2 1",
" 	c None",
".	c #7F7F7F",
"                                                                                                    ",
"                                                                                                    ",
"                                                                                                    ",
"                                                                                                    ",
"                                                                                                    ",
"                                                    ...                                             ",
"                                                   .....                                            ",
"                                                   .....                                            ",
"                                                  .......                                           ",
"                                                  ........                                          ",
"                                                 .........                                          ",
"                                                ...........                                         ",
"                                                ...........                                         ",
"                                               ...... ......                                        ",
"                                               ...... ......                                        ",
"                                              ......   ......                                       ",
"                                              .....     .....                                       ",
"                                             ......     ......                                      ",
"                                             .....       .....                                      ",
"                                            ......       ......                                     ",
"                                            .....         ......                                    ",
"                                           ......         ......                                    ",
"                                          ......           ......                                   ",
"                                          ......           ......                                   ",
"                                         ......             ......                                  ",
"                                         ......              .....                                  ",
"                                        ......               ......                                 ",
"                                        .....                 .....                                 ",
"                                       ......                 ......                                ",
"                                       .....                   .....                                ",
"                                      ......                   ......                               ",
"                                     ......                     ......                              ",
"                                     ......                     ......                              ",
"                                    ......                       ......                             ",
"                                    ......                       ......                             ",
"                                   ......                         ......                            ",
"                                   ......                          .....                            ",
"                                  ......                           ......                           ",
"                                  .....                             .....                           ",
"                                 ......                             ......                          ",
"                                 .....                               ......                         ",
"                                ......                               ......                         ",
"                               ......                                 ......                        ",
"                               ......                                 ......                        ",
"                              ......                                   ......                       ",
"                              ......                                   ......                       ",
"                             ......                                     ......                      ",
"                             .....                                       .....                      ",
"                            ......                                       ......                     ",
"                            .....                                         .....                     ",
"                           ......                                         ......                    ",
"                          ......                                           ......                   ",
"                          ......                                           ......                   ",
"                         ......                                             ......                  ",
"                         ......                                             ......                  ",
"                        ......                                               ......                 ",
"                        ......                                                .....                 ",
"                       ......                                                 ......                ",
"                       .....                                                   .....                ",
"                      ......                                                   ......               ",
"                      .....                                                     ......              ",
"                     ......                                                     ......              ",
"                    ......                                                       ......             ",
"                    ......                                                       ......             ",
"                   ......                                                         ......            ",
"                   ......                                                         ......            ",
"                  ......                                                           ......           ",
"                  .....                                                             .....           ",
"                 ......                                                             ......          ",
"                 .....                                                               .....          ",
"                ......                                                               ......         ",
"                .....                                                                 ......        ",
"               ......                                                                 ......        ",
"              ......                                                                   ......       ",
"              ......                                                                   ......       ",
"             ......                                                                     ......      ",
"             .................................................................................      ",
"            ...................................................................................     ",
"            ...................................................................................     ",
"            ...................................................................................     ",
"             .................................................................................      ",
"                                                                                                    ",
"                                                                                                    ",
"                                                                                                    ",
"                                                                                                    ",
"                                                                                                    ",
"                                                                                                    ",
"                                                                                                    ",
"                                                                                                    ",
"                                                                                                    ",
"                                                                                                    ",
"                                                                                                    ",
"                                                                                                    ",
"                                                                                                    ",
"                                                                                                    ",
"                                                                                                    ",
"                                                                                                    ",
"                                                                                                    ",
"                                                                                                    ",
"                                                                                                    "};
